<svg xmlns="http://www.w3.org/2000/svg" width="800" height="600" data-software-used-string="@tscircuit/core@0.0.635"><style/><rect width="800" height="600" x="0" y="0" fill="#000" class="boundary"/><rect width="683.212" height="362.044" x="58.394" y="118.978" fill="none" stroke="#fff" stroke-width=".3" class="pcb-boundary"/><path fill="none" stroke="rgba(255, 255, 255, 0.5)" stroke-width="5.839" d="M 58.39416058394161 481.02189781021895 L 741.6058394160583 481.02189781021895 L 741.6058394160583 118.97810218978097 L 58.39416058394161 118.97810218978097 Z" class="pcb-board"/><rect width="35.036" height="35.036" x="175.182" y="235.766" fill="#C83434" class="pcb-pad" data-layer="top"/><rect width="35.036" height="35.036" x="233.577" y="235.766" fill="#C83434" class="pcb-pad" data-layer="top"/><rect width="35.036" height="35.036" x="175.182" y="329.197" fill="#C83434" class="pcb-pad" data-layer="top"/><rect width="35.036" height="35.036" x="233.577" y="329.197" fill="#C83434" class="pcb-pad" data-layer="top"/><rect width="35.036" height="35.036" x="531.387" y="235.766" fill="#C83434" class="pcb-pad" data-layer="top"/><rect width="35.036" height="35.036" x="589.781" y="235.766" fill="#C83434" class="pcb-pad" data-layer="top"/><rect width="35.036" height="35.036" x="531.387" y="329.197" fill="#C83434" class="pcb-pad" data-layer="top"/><rect width="35.036" height="35.036" x="589.781" y="329.197" fill="#C83434" class="pcb-pad" data-layer="top"/><path fill="none" stroke="#f2eda1" stroke-linecap="round" stroke-linejoin="round" stroke-width="5.839" d="M 251.0948905109489 212.40875912408754 L 163.50364963503648 212.40875912408754 L 163.50364963503648 294.16058394160575 L 251.0948905109489 294.16058394160575" class="pcb-silkscreen pcb-silkscreen-top" data-pcb-component-id="pcb_component_0" data-pcb-silkscreen-path-id="pcb_silkscreen_path_0"/><path fill="none" stroke="#f2eda1" stroke-linecap="round" stroke-linejoin="round" stroke-width="5.839" d="M 251.0948905109489 305.83941605839414 L 163.50364963503648 305.83941605839414 L 163.50364963503648 387.5912408759124 L 251.0948905109489 387.5912408759124" class="pcb-silkscreen pcb-silkscreen-top" data-pcb-component-id="pcb_component_1" data-pcb-silkscreen-path-id="pcb_silkscreen_path_1"/><path fill="none" stroke="#f2eda1" stroke-linecap="round" stroke-linejoin="round" stroke-width="5.839" d="M 607.2992700729927 212.40875912408754 L 519.7080291970802 212.40875912408754 L 519.7080291970802 294.16058394160575 L 607.2992700729927 294.16058394160575" class="pcb-silkscreen pcb-silkscreen-top" data-pcb-component-id="pcb_component_2" data-pcb-silkscreen-path-id="pcb_silkscreen_path_2"/><path fill="none" stroke="#f2eda1" stroke-linecap="round" stroke-linejoin="round" stroke-width="5.839" d="M 607.2992700729927 305.83941605839414 L 519.7080291970802 305.83941605839414 L 519.7080291970802 387.5912408759124 L 607.2992700729927 387.5912408759124" class="pcb-silkscreen pcb-silkscreen-top" data-pcb-component-id="pcb_component_3" data-pcb-silkscreen-path-id="pcb_silkscreen_path_3"/><text x="0" y="0" fill="#f2eda1" stroke="none" class="pcb-silkscreen-text pcb-silkscreen-top" data-pcb-silkscreen-text-id="pcb_component_0" dominant-baseline="central" dx="0" dy="0" font-family="Arial, sans-serif" font-size="23.358" text-anchor="middle" transform="matrix(1,0,0,1,221.8978102189781,183.21167883211672)">R1</text><text x="0" y="0" fill="#f2eda1" stroke="none" class="pcb-silkscreen-text pcb-silkscreen-top" data-pcb-silkscreen-text-id="pcb_component_1" dominant-baseline="central" dx="0" dy="0" font-family="Arial, sans-serif" font-size="23.358" text-anchor="middle" transform="matrix(1,0,0,1,221.8978102189781,276.6423357664233)">C1</text><text x="0" y="0" fill="#f2eda1" stroke="none" class="pcb-silkscreen-text pcb-silkscreen-top" data-pcb-silkscreen-text-id="pcb_component_2" dominant-baseline="central" dx="0" dy="0" font-family="Arial, sans-serif" font-size="23.358" text-anchor="middle" transform="matrix(1,0,0,1,578.1021897810218,183.21167883211672)">R2</text><text x="0" y="0" fill="#f2eda1" stroke="none" class="pcb-silkscreen-text pcb-silkscreen-top" data-pcb-silkscreen-text-id="pcb_component_3" dominant-baseline="central" dx="0" dy="0" font-family="Arial, sans-serif" font-size="23.358" text-anchor="middle" transform="matrix(1,0,0,1,578.1021897810218,276.6423357664233)">C2</text></svg>