<svg xmlns="http://www.w3.org/2000/svg" width="800" height="600" data-software-used-string="@tscircuit/core@0.0.664"><style/><rect width="800" height="600" x="0" y="0" fill="#000" class="boundary"/><rect width="776.33" height="450.92" x="11.835" y="74.54" fill="none" stroke="#fff" stroke-width=".3" class="pcb-boundary"/><path fill="none" stroke="rgba(255, 255, 255, 0.5)" stroke-width="1.184" d="M 21.600382276230107 525.4601295064286 L 788.1648225980877 525.4601295064286 L 788.1648225980877 74.53987049357121 L 21.600382276230107 74.53987049357121 Z" class="pcb-board"/><rect width="20.712" height="4.142" x="12.723" y="168.482" fill="#4D7FC4" class="pcb-pad" data-layer="bottom"/><rect width="20.712" height="4.142" x="12.723" y="174.399" fill="#4D7FC4" class="pcb-pad" data-layer="bottom"/><rect width="20.712" height="4.142" x="12.723" y="180.317" fill="#4D7FC4" class="pcb-pad" data-layer="bottom"/><rect width="20.712" height="4.142" x="12.723" y="186.234" fill="#4D7FC4" class="pcb-pad" data-layer="bottom"/><rect width="20.712" height="4.142" x="12.723" y="192.152" fill="#4D7FC4" class="pcb-pad" data-layer="bottom"/><rect width="20.712" height="4.142" x="12.723" y="198.07" fill="#4D7FC4" class="pcb-pad" data-layer="bottom"/><rect width="20.712" height="4.142" x="12.723" y="203.987" fill="#4D7FC4" class="pcb-pad" data-layer="bottom"/><rect width="20.712" height="4.142" x="12.723" y="209.905" fill="#4D7FC4" class="pcb-pad" data-layer="bottom"/><rect width="20.712" height="4.142" x="12.723" y="215.822" fill="#4D7FC4" class="pcb-pad" data-layer="bottom"/><rect width="20.712" height="4.142" x="12.723" y="221.74" fill="#4D7FC4" class="pcb-pad" data-layer="bottom"/><rect width="20.712" height="4.142" x="12.723" y="227.657" fill="#4D7FC4" class="pcb-pad" data-layer="bottom"/><rect width="20.712" height="4.142" x="12.723" y="257.245" fill="#4D7FC4" class="pcb-pad" data-layer="bottom"/><rect width="20.712" height="4.142" x="12.723" y="263.163" fill="#4D7FC4" class="pcb-pad" data-layer="bottom"/><rect width="20.712" height="4.142" x="12.723" y="269.081" fill="#4D7FC4" class="pcb-pad" data-layer="bottom"/><rect width="20.712" height="4.142" x="12.723" y="274.998" fill="#4D7FC4" class="pcb-pad" data-layer="bottom"/><rect width="20.712" height="4.142" x="12.723" y="280.916" fill="#4D7FC4" class="pcb-pad" data-layer="bottom"/><rect width="20.712" height="4.142" x="12.723" y="286.833" fill="#4D7FC4" class="pcb-pad" data-layer="bottom"/><rect width="20.712" height="4.142" x="12.723" y="292.751" fill="#4D7FC4" class="pcb-pad" data-layer="bottom"/><rect width="20.712" height="4.142" x="12.723" y="298.669" fill="#4D7FC4" class="pcb-pad" data-layer="bottom"/><rect width="20.712" height="4.142" x="12.723" y="304.586" fill="#4D7FC4" class="pcb-pad" data-layer="bottom"/><rect width="20.712" height="4.142" x="12.723" y="310.504" fill="#4D7FC4" class="pcb-pad" data-layer="bottom"/><rect width="20.712" height="4.142" x="12.723" y="316.421" fill="#4D7FC4" class="pcb-pad" data-layer="bottom"/><rect width="20.712" height="4.142" x="12.723" y="322.339" fill="#4D7FC4" class="pcb-pad" data-layer="bottom"/><rect width="20.712" height="4.142" x="12.723" y="328.256" fill="#4D7FC4" class="pcb-pad" data-layer="bottom"/><rect width="20.712" height="4.142" x="12.723" y="334.174" fill="#4D7FC4" class="pcb-pad" data-layer="bottom"/><rect width="20.712" height="4.142" x="12.723" y="340.092" fill="#4D7FC4" class="pcb-pad" data-layer="bottom"/><rect width="20.712" height="4.142" x="12.723" y="346.009" fill="#4D7FC4" class="pcb-pad" data-layer="bottom"/><rect width="20.712" height="4.142" x="12.723" y="351.927" fill="#4D7FC4" class="pcb-pad" data-layer="bottom"/><rect width="20.712" height="4.142" x="12.723" y="357.844" fill="#4D7FC4" class="pcb-pad" data-layer="bottom"/><rect width="20.712" height="4.142" x="12.723" y="363.762" fill="#4D7FC4" class="pcb-pad" data-layer="bottom"/><rect width="20.712" height="4.142" x="12.723" y="369.68" fill="#4D7FC4" class="pcb-pad" data-layer="bottom"/><rect width="20.712" height="4.142" x="12.723" y="375.597" fill="#4D7FC4" class="pcb-pad" data-layer="bottom"/><rect width="20.712" height="4.142" x="12.723" y="381.515" fill="#4D7FC4" class="pcb-pad" data-layer="bottom"/><path fill="none" stroke="#C83434" stroke-linecap="round" stroke-linejoin="round" stroke-width="4.438" d="M 431.95261786727133 341.7789774702603 L 431.95261786727133 329.47039297227155" class="pcb-trace" data-layer="top" shape-rendering="crispEdges"/><path fill="none" stroke="#C83434" stroke-linecap="round" stroke-linejoin="round" stroke-width="4.438" d="M 402.36467436249063 356.33624567461237 L 402.36467436249063 344.0276611766236" class="pcb-trace" data-layer="top" shape-rendering="crispEdges"/><path fill="none" stroke="#C83434" stroke-linecap="round" stroke-linejoin="round" stroke-width="4.438" d="M 476.5712366724806 341.7789774702603 L 476.5712366724806 329.47039297227155" class="pcb-trace" data-layer="top" shape-rendering="crispEdges"/><rect width="17.753" height="4.142" x="17.161" y="165.523" fill="#C83434" class="pcb-pad" data-layer="top"/><rect width="17.753" height="4.142" x="17.161" y="171.44" fill="#C83434" class="pcb-pad" data-layer="top"/><rect width="17.753" height="4.142" x="17.161" y="177.358" fill="#C83434" class="pcb-pad" data-layer="top"/><rect width="17.753" height="4.142" x="17.161" y="183.276" fill="#C83434" class="pcb-pad" data-layer="top"/><rect width="17.753" height="4.142" x="17.161" y="189.193" fill="#C83434" class="pcb-pad" data-layer="top"/><rect width="17.753" height="4.142" x="17.161" y="195.111" fill="#C83434" class="pcb-pad" data-layer="top"/><rect width="17.753" height="4.142" x="17.161" y="201.028" fill="#C83434" class="pcb-pad" data-layer="top"/><rect width="17.753" height="4.142" x="17.161" y="206.946" fill="#C83434" class="pcb-pad" data-layer="top"/><rect width="17.753" height="4.142" x="17.161" y="212.864" fill="#C83434" class="pcb-pad" data-layer="top"/><rect width="17.753" height="4.142" x="17.161" y="218.781" fill="#C83434" class="pcb-pad" data-layer="top"/><rect width="17.753" height="4.142" x="17.161" y="224.699" fill="#C83434" class="pcb-pad" data-layer="top"/><rect width="17.753" height="4.142" x="17.161" y="230.616" fill="#C83434" class="pcb-pad" data-layer="top"/><rect width="17.753" height="4.142" x="17.161" y="260.204" fill="#C83434" class="pcb-pad" data-layer="top"/><rect width="17.753" height="4.142" x="17.161" y="266.122" fill="#C83434" class="pcb-pad" data-layer="top"/><rect width="17.753" height="4.142" x="17.161" y="272.039" fill="#C83434" class="pcb-pad" data-layer="top"/><rect width="17.753" height="4.142" x="17.161" y="277.957" fill="#C83434" class="pcb-pad" data-layer="top"/><rect width="17.753" height="4.142" x="17.161" y="283.875" fill="#C83434" class="pcb-pad" data-layer="top"/><rect width="17.753" height="4.142" x="17.161" y="289.792" fill="#C83434" class="pcb-pad" data-layer="top"/><rect width="17.753" height="4.142" x="17.161" y="295.71" fill="#C83434" class="pcb-pad" data-layer="top"/><rect width="17.753" height="4.142" x="17.161" y="301.627" fill="#C83434" class="pcb-pad" data-layer="top"/><rect width="17.753" height="4.142" x="17.161" y="307.545" fill="#C83434" class="pcb-pad" data-layer="top"/><rect width="17.753" height="4.142" x="17.161" y="313.463" fill="#C83434" class="pcb-pad" data-layer="top"/><rect width="17.753" height="4.142" x="17.161" y="319.38" fill="#C83434" class="pcb-pad" data-layer="top"/><rect width="17.753" height="4.142" x="17.161" y="325.298" fill="#C83434" class="pcb-pad" data-layer="top"/><rect width="17.753" height="4.142" x="17.161" y="331.215" fill="#C83434" class="pcb-pad" data-layer="top"/><rect width="17.753" height="4.142" x="17.161" y="337.133" fill="#C83434" class="pcb-pad" data-layer="top"/><rect width="17.753" height="4.142" x="17.161" y="343.05" fill="#C83434" class="pcb-pad" data-layer="top"/><rect width="17.753" height="4.142" x="17.161" y="348.968" fill="#C83434" class="pcb-pad" data-layer="top"/><rect width="17.753" height="4.142" x="17.161" y="354.886" fill="#C83434" class="pcb-pad" data-layer="top"/><rect width="17.753" height="4.142" x="17.161" y="360.803" fill="#C83434" class="pcb-pad" data-layer="top"/><rect width="17.753" height="4.142" x="17.161" y="366.721" fill="#C83434" class="pcb-pad" data-layer="top"/><rect width="17.753" height="4.142" x="17.161" y="372.638" fill="#C83434" class="pcb-pad" data-layer="top"/><rect width="17.753" height="4.142" x="17.161" y="378.556" fill="#C83434" class="pcb-pad" data-layer="top"/><rect width="17.753" height="4.142" x="17.161" y="384.474" fill="#C83434" class="pcb-pad" data-layer="top"/><rect width="11.835" height="7.101" x="77.64" y="250.233" fill="#C83434" class="pcb-pad" data-layer="top"/><rect width="11.835" height="7.101" x="77.64" y="265.264" fill="#C83434" class="pcb-pad" data-layer="top"/><rect width="11.835" height="7.101" x="77.64" y="280.294" fill="#C83434" class="pcb-pad" data-layer="top"/><rect width="11.835" height="7.101" x="77.64" y="295.325" fill="#C83434" class="pcb-pad" data-layer="top"/><rect width="11.835" height="7.101" x="128.531" y="295.325" fill="#C83434" class="pcb-pad" data-layer="top"/><rect width="11.835" height="7.101" x="128.531" y="280.294" fill="#C83434" class="pcb-pad" data-layer="top"/><rect width="11.835" height="7.101" x="128.531" y="265.264" fill="#C83434" class="pcb-pad" data-layer="top"/><rect width="11.835" height="7.101" x="128.531" y="250.233" fill="#C83434" class="pcb-pad" data-layer="top"/><rect width="4.565" height="6.923" x="393.131" y="313.316" fill="#C83434" class="pcb-pad" data-layer="top"/><rect width="4.565" height="6.923" x="402.6" y="313.316" fill="#C83434" class="pcb-pad" data-layer="top"/><rect width="4.565" height="6.923" x="412.07" y="313.316" fill="#C83434" class="pcb-pad" data-layer="top"/><rect width="6.923" height="4.565" x="421.156" y="307.187" fill="#C83434" class="pcb-pad" data-layer="top"/><rect width="6.923" height="4.565" x="421.156" y="297.718" fill="#C83434" class="pcb-pad" data-layer="top"/><rect width="6.923" height="4.565" x="421.156" y="288.248" fill="#C83434" class="pcb-pad" data-layer="top"/><rect width="4.565" height="6.923" x="412.07" y="279.761" fill="#C83434" class="pcb-pad" data-layer="top"/><rect width="4.565" height="6.923" x="402.6" y="279.761" fill="#C83434" class="pcb-pad" data-layer="top"/><rect width="4.565" height="6.923" x="393.131" y="279.761" fill="#C83434" class="pcb-pad" data-layer="top"/><rect width="6.923" height="4.565" x="381.686" y="288.248" fill="#C83434" class="pcb-pad" data-layer="top"/><rect width="6.923" height="4.565" x="381.686" y="297.718" fill="#C83434" class="pcb-pad" data-layer="top"/><rect width="6.923" height="4.565" x="381.686" y="307.187" fill="#C83434" class="pcb-pad" data-layer="top"/><rect width="27.221" height="21.303" x="391.272" y="289.348" fill="#C83434" class="pcb-pad" data-layer="top"/><rect width="7.101" height="7.101" x="439.915" y="301.098" fill="#C83434" class="pcb-pad" data-layer="top"/><rect width="7.101" height="7.101" x="439.915" y="289.263" fill="#C83434" class="pcb-pad" data-layer="top"/><rect width="7.101" height="7.101" x="436.687" y="371.367" fill="#C83434" class="pcb-pad" data-layer="top"/><rect width="7.101" height="7.101" x="424.852" y="371.367" fill="#C83434" class="pcb-pad" data-layer="top"/><rect width="17.753" height="17.753" x="423.076" y="341.779" fill="#C83434" class="pcb-pad" data-layer="top"/><rect width="17.753" height="17.753" x="423.076" y="311.718" fill="#C83434" class="pcb-pad" data-layer="top"/><rect width="7.101" height="7.101" x="439.054" y="390.303" fill="#C83434" class="pcb-pad" data-layer="top"/><rect width="7.101" height="7.101" x="427.219" y="390.303" fill="#C83434" class="pcb-pad" data-layer="top"/><rect width="17.753" height="17.753" x="393.488" y="356.336" fill="#C83434" class="pcb-pad" data-layer="top"/><rect width="17.753" height="17.753" x="393.488" y="326.275" fill="#C83434" class="pcb-pad" data-layer="top"/><rect width="7.101" height="7.101" x="455.623" y="371.367" fill="#C83434" class="pcb-pad" data-layer="top"/><rect width="7.101" height="7.101" x="467.458" y="371.367" fill="#C83434" class="pcb-pad" data-layer="top"/><rect width="17.753" height="17.753" x="467.695" y="341.779" fill="#C83434" class="pcb-pad" data-layer="top"/><rect width="17.753" height="17.753" x="467.695" y="311.718" fill="#C83434" class="pcb-pad" data-layer="top"/><rect width="41.184" height="13.828" x="-20.592" y="-6.914" fill="#FF26E2" class="pcb-cutout pcb-cutout-rect" transform="matrix(1,0,0,1,14.321748174053994,246.05407788434363)"/><path fill="none" stroke="#f2eda1" stroke-linecap="round" stroke-linejoin="round" stroke-width=".592" d="M 15.385730622485937 167.59395281610645 L 11.83517740191229 164.04339959553275 L 11.83517740191229 171.14450603668013 L 15.385730622485937 167.59395281610645 Z" class="pcb-silkscreen pcb-silkscreen-top" data-pcb-component-id="pcb_component_0" data-pcb-silkscreen-path-id="pcb_silkscreen_path_0"/><path fill="none" stroke="#f2eda1" stroke-linecap="round" stroke-linejoin="round" stroke-width="1.184" d="M 90.65864241638815 306.1838801924991 L 90.65864241638815 246.4754101998517 L 102.88832573169748 246.4754101998517 L 103.3537903372976 248.81545879377205 L 104.67932138734255 250.7992562018613 L 106.66311879543184 252.12478725190624 L 109.00316738935214 252.5902518575064 L 111.3432159832725 252.12478725190624 L 113.32701339136179 250.7992562018613 L 114.65254444140675 248.81545879377205 L 115.11800904700681 246.4754101998517 L 127.3476923623162 246.4754101998517 L 127.3476923623162 306.1838801924991 L 90.65864241638815 306.1838801924991 Z" class="pcb-silkscreen pcb-silkscreen-top" data-pcb-component-id="pcb_component_1" data-pcb-silkscreen-path-id="pcb_silkscreen_path_1"/><path fill="none" stroke="#f2eda1" stroke-linecap="round" stroke-linejoin="round" stroke-width="1.184" d="M 391.32944251876245 318.65547295588 L 383.27029503617854 318.65547295588 L 383.27029503617854 313.5549635994325" class="pcb-silkscreen pcb-silkscreen-top" data-pcb-component-id="pcb_component_2" data-pcb-silkscreen-path-id="pcb_silkscreen_path_2"/><path fill="none" stroke="#f2eda1" stroke-linecap="round" stroke-linejoin="round" stroke-width="1.184" d="M 391.32944251876245 281.3463307251562 L 383.27029503617854 281.3463307251562 L 383.27029503617854 286.4465394680977" class="pcb-silkscreen pcb-silkscreen-top" data-pcb-component-id="pcb_component_2" data-pcb-silkscreen-path-id="pcb_silkscreen_path_3"/><path fill="none" stroke="#f2eda1" stroke-linecap="round" stroke-linejoin="round" stroke-width="1.184" d="M 418.4378666500974 281.3463307251562 L 426.497014132681 281.3463307251562 L 426.497014132681 286.4465394680977" class="pcb-silkscreen pcb-silkscreen-top" data-pcb-component-id="pcb_component_2" data-pcb-silkscreen-path-id="pcb_silkscreen_path_4"/><path fill="none" stroke="#f2eda1" stroke-linecap="round" stroke-linejoin="round" stroke-width="1.184" d="M 418.4378666500974 318.65547295588 L 426.497014132681 318.65547295588 L 426.497014132681 313.5549635994325" class="pcb-silkscreen pcb-silkscreen-top" data-pcb-component-id="pcb_component_2" data-pcb-silkscreen-path-id="pcb_silkscreen_path_5"/><path fill="none" stroke="#f2eda1" stroke-linecap="round" stroke-linejoin="round" stroke-width="1.184" d="M 435.18070037621067 292.8130826051001 L 435.18070037621067 310.5658487079685 L 451.74994873888784 310.5658487079685 L 451.74994873888784 292.8130826051001" class="pcb-silkscreen pcb-silkscreen-top" data-pcb-component-id="pcb_component_3" data-pcb-silkscreen-path-id="pcb_silkscreen_path_6"/><path fill="none" stroke="#f2eda1" stroke-linecap="round" stroke-linejoin="round" stroke-width="1.184" d="M 428.4020646466977 383.20209837695324 L 446.15483074956603 383.20209837695324 L 446.15483074956603 366.6328500142761 L 428.4020646466977 366.6328500142761" class="pcb-silkscreen pcb-silkscreen-top" data-pcb-component-id="pcb_component_4" data-pcb-silkscreen-path-id="pcb_silkscreen_path_7"/><path fill="none" stroke="#f2eda1" stroke-linecap="round" stroke-linejoin="round" stroke-width="1.775" d="M 446.7465896196617 363.674055663798 L 446.7465896196617 307.57531477873385 L 417.158646114881 307.57531477873385 L 417.158646114881 363.674055663798 L 446.7465896196617 363.674055663798 Z" class="pcb-silkscreen pcb-silkscreen-top" data-pcb-component-id="pcb_component_5" data-pcb-silkscreen-path-id="pcb_silkscreen_path_8"/><path fill="none" stroke="#f2eda1" stroke-linecap="round" stroke-linejoin="round" stroke-width="1.184" d="M 430.7691001270801 402.1383822200129 L 448.5218662299485 402.1383822200129 L 448.5218662299485 385.5691338573357 L 430.7691001270801 385.5691338573357" class="pcb-silkscreen pcb-silkscreen-top" data-pcb-component-id="pcb_component_6" data-pcb-silkscreen-path-id="pcb_silkscreen_path_9"/><path fill="none" stroke="#f2eda1" stroke-linecap="round" stroke-linejoin="round" stroke-width="1.775" d="M 417.158646114881 378.23132386815007 L 417.158646114881 322.1325829830859 L 387.57070261010034 322.1325829830859 L 387.5707026101003 378.23132386815007 L 417.158646114881 378.23132386815007 Z" class="pcb-silkscreen pcb-silkscreen-top" data-pcb-component-id="pcb_component_7" data-pcb-silkscreen-path-id="pcb_silkscreen_path_10"/><path fill="none" stroke="#f2eda1" stroke-linecap="round" stroke-linejoin="round" stroke-width="1.184" d="M 471.0087032935818 366.6328500142761 L 453.25593719071344 366.6328500142761 L 453.25593719071344 383.20209837695324 L 471.0087032935818 383.20209837695324" class="pcb-silkscreen pcb-silkscreen-top" data-pcb-component-id="pcb_component_8" data-pcb-silkscreen-path-id="pcb_silkscreen_path_11"/><path fill="none" stroke="#f2eda1" stroke-linecap="round" stroke-linejoin="round" stroke-width="1.775" d="M 491.3652084248709 363.674055663798 L 491.36520842487096 307.57531477873385 L 461.77726492009026 307.57531477873385 L 461.77726492009026 363.674055663798 L 491.3652084248709 363.674055663798 Z" class="pcb-silkscreen pcb-silkscreen-top" data-pcb-component-id="pcb_component_9" data-pcb-silkscreen-path-id="pcb_silkscreen_path_12"/><text x="0" y="0" fill="#f2eda1" stroke="none" class="pcb-silkscreen-text pcb-silkscreen-top" data-pcb-silkscreen-text-id="pcb_component_1" dominant-baseline="central" dx="0" dy="0" font-family="Arial, sans-serif" font-size="7.343" text-anchor="middle" transform="matrix(1,0,0,1,109.00316738935214,241.7413392390868)">U2</text><text x="0" y="0" fill="#f2eda1" stroke="none" class="pcb-silkscreen-text pcb-silkscreen-top" data-pcb-silkscreen-text-id="pcb_component_3" dominant-baseline="central" dx="0" dy="0" font-family="Arial, sans-serif" font-size="4.734" text-anchor="middle" transform="matrix(1,0,0,1,429.26311167525455,298.73067130605625)">C4</text><text x="0" y="0" fill="#f2eda1" stroke="none" class="pcb-silkscreen-text pcb-silkscreen-top" data-pcb-silkscreen-text-id="pcb_component_4" dominant-baseline="central" dx="0" dy="0" font-family="Arial, sans-serif" font-size="4.734" text-anchor="middle" transform="matrix(1,0,0,1,434.3196533476538,389.11968707790936)">R4</text><text x="0" y="0" fill="#f2eda1" stroke="none" class="pcb-silkscreen-text pcb-silkscreen-top" data-pcb-silkscreen-text-id="pcb_component_5" dominant-baseline="central" dx="0" dy="0" font-family="Arial, sans-serif" font-size="7.101" text-anchor="middle" transform="matrix(1,0,0,1,410.05753967373363,335.6246852212659)">J_0X2A</text><text x="0" y="0" fill="#f2eda1" stroke="none" class="pcb-silkscreen-text pcb-silkscreen-top" data-pcb-silkscreen-text-id="pcb_component_6" dominant-baseline="central" dx="0" dy="0" font-family="Arial, sans-serif" font-size="4.734" text-anchor="middle" transform="matrix(1,0,0,1,436.68668882803627,408.055970920969)">R5</text><text x="0" y="0" fill="#f2eda1" stroke="none" class="pcb-silkscreen-text pcb-silkscreen-top" data-pcb-silkscreen-text-id="pcb_component_7" dominant-baseline="central" dx="0" dy="0" font-family="Arial, sans-serif" font-size="7.101" text-anchor="middle" transform="matrix(1,0,0,1,380.46959616895293,350.181953425618)">J_0X2B</text><text x="0" y="0" fill="#f2eda1" stroke="none" class="pcb-silkscreen-text pcb-silkscreen-top" data-pcb-silkscreen-text-id="pcb_component_8" dominant-baseline="central" dx="0" dy="0" font-family="Arial, sans-serif" font-size="4.734" text-anchor="middle" transform="matrix(1,0,0,1,465.0911145926257,360.71526131331996)">R6</text><text x="0" y="0" fill="#f2eda1" stroke="none" class="pcb-silkscreen-text pcb-silkscreen-top" data-pcb-silkscreen-text-id="pcb_component_9" dominant-baseline="central" dx="0" dy="0" font-family="Arial, sans-serif" font-size="7.101" text-anchor="middle" transform="matrix(1,0,0,1,454.6761584789429,335.6246852212659)">J_0X2C</text></svg>