<svg xmlns="http://www.w3.org/2000/svg" width="1200" height="600" style="background-color:#f5f1ed" data-real-to-screen-transform="matrix(146.0853265482,0,0,-146.0853265482,380.8720101776,154.770880768)" data-software-used-string="@tscircuit/core@0.0.661"><style>.boundary{fill:#f5f1ed}.trace:hover,.trace:hover .trace-junction{filter:invert(1)}</style><rect width="1200" height="600" x="0" y="0" class="boundary"/><g class="grid"><line x1="88.701" x2="88.701" y1="600" y2="0" stroke="#B5B5B5" stroke-opacity=".5" stroke-width="1.461"/><line x1="234.787" x2="234.787" y1="600" y2="0" stroke="#B5B5B5" stroke-opacity=".5" stroke-width="1.461"/><line x1="380.872" x2="380.872" y1="600" y2="0" stroke="#B5B5B5" stroke-opacity=".5" stroke-width="1.461"/><line x1="526.957" x2="526.957" y1="600" y2="0" stroke="#B5B5B5" stroke-opacity=".5" stroke-width="1.461"/><line x1="673.043" x2="673.043" y1="600" y2="0" stroke="#B5B5B5" stroke-opacity=".5" stroke-width="1.461"/><line x1="819.128" x2="819.128" y1="600" y2="0" stroke="#B5B5B5" stroke-opacity=".5" stroke-width="1.461"/><line x1="965.213" x2="965.213" y1="600" y2="0" stroke="#B5B5B5" stroke-opacity=".5" stroke-width="1.461"/><line x1="1111.299" x2="1111.299" y1="600" y2="0" stroke="#B5B5B5" stroke-opacity=".5" stroke-width="1.461"/><line x1="190.961" x2="1009.039" y1="739.112" y2="739.112" stroke="#B5B5B5" stroke-opacity=".5" stroke-width="1.461"/><line x1="190.961" x2="1009.039" y1="593.027" y2="593.027" stroke="#B5B5B5" stroke-opacity=".5" stroke-width="1.461"/><line x1="190.961" x2="1009.039" y1="446.942" y2="446.942" stroke="#B5B5B5" stroke-opacity=".5" stroke-width="1.461"/><line x1="190.961" x2="1009.039" y1="300.856" y2="300.856" stroke="#B5B5B5" stroke-opacity=".5" stroke-width="1.461"/><line x1="190.961" x2="1009.039" y1="154.771" y2="154.771" stroke="#B5B5B5" stroke-opacity=".5" stroke-width="1.461"/><line x1="190.961" x2="1009.039" y1="8.686" y2="8.686" stroke="#B5B5B5" stroke-opacity=".5" stroke-width="1.461"/><line x1="190.961" x2="1009.039" y1="-137.4" y2="-137.4" stroke="#B5B5B5" stroke-opacity=".5" stroke-width="1.461"/><text x="86.201" y="734.112" fill="#B5B5B5" fill-opacity=".5" dominant-baseline="middle" font-family="sans-serif" font-size="29.217" text-anchor="middle">-2,-4</text><text x="86.201" y="588.027" fill="#B5B5B5" fill-opacity=".5" dominant-baseline="middle" font-family="sans-serif" font-size="29.217" text-anchor="middle">-2,-3</text><text x="86.201" y="441.942" fill="#B5B5B5" fill-opacity=".5" dominant-baseline="middle" font-family="sans-serif" font-size="29.217" text-anchor="middle">-2,-2</text><text x="86.201" y="295.856" fill="#B5B5B5" fill-opacity=".5" dominant-baseline="middle" font-family="sans-serif" font-size="29.217" text-anchor="middle">-2,-1</text><text x="86.201" y="149.771" fill="#B5B5B5" fill-opacity=".5" dominant-baseline="middle" font-family="sans-serif" font-size="29.217" text-anchor="middle">-2,0</text><text x="86.201" y="3.686" fill="#B5B5B5" fill-opacity=".5" dominant-baseline="middle" font-family="sans-serif" font-size="29.217" text-anchor="middle">-2,1</text><text x="86.201" y="-142.4" fill="#B5B5B5" fill-opacity=".5" dominant-baseline="middle" font-family="sans-serif" font-size="29.217" text-anchor="middle">-2,2</text><text x="232.287" y="734.112" fill="#B5B5B5" fill-opacity=".5" dominant-baseline="middle" font-family="sans-serif" font-size="29.217" text-anchor="middle">-1,-4</text><text x="232.287" y="588.027" fill="#B5B5B5" fill-opacity=".5" dominant-baseline="middle" font-family="sans-serif" font-size="29.217" text-anchor="middle">-1,-3</text><text x="232.287" y="441.942" fill="#B5B5B5" fill-opacity=".5" dominant-baseline="middle" font-family="sans-serif" font-size="29.217" text-anchor="middle">-1,-2</text><text x="232.287" y="295.856" fill="#B5B5B5" fill-opacity=".5" dominant-baseline="middle" font-family="sans-serif" font-size="29.217" text-anchor="middle">-1,-1</text><text x="232.287" y="149.771" fill="#B5B5B5" fill-opacity=".5" dominant-baseline="middle" font-family="sans-serif" font-size="29.217" text-anchor="middle">-1,0</text><text x="232.287" y="3.686" fill="#B5B5B5" fill-opacity=".5" dominant-baseline="middle" font-family="sans-serif" font-size="29.217" text-anchor="middle">-1,1</text><text x="232.287" y="-142.4" fill="#B5B5B5" fill-opacity=".5" dominant-baseline="middle" font-family="sans-serif" font-size="29.217" text-anchor="middle">-1,2</text><text x="378.372" y="734.112" fill="#B5B5B5" fill-opacity=".5" dominant-baseline="middle" font-family="sans-serif" font-size="29.217" text-anchor="middle">0,-4</text><text x="378.372" y="588.027" fill="#B5B5B5" fill-opacity=".5" dominant-baseline="middle" font-family="sans-serif" font-size="29.217" text-anchor="middle">0,-3</text><text x="378.372" y="441.942" fill="#B5B5B5" fill-opacity=".5" dominant-baseline="middle" font-family="sans-serif" font-size="29.217" text-anchor="middle">0,-2</text><text x="378.372" y="295.856" fill="#B5B5B5" fill-opacity=".5" dominant-baseline="middle" font-family="sans-serif" font-size="29.217" text-anchor="middle">0,-1</text><text x="378.372" y="149.771" fill="#B5B5B5" fill-opacity=".5" dominant-baseline="middle" font-family="sans-serif" font-size="29.217" text-anchor="middle">0,0</text><text x="378.372" y="3.686" fill="#B5B5B5" fill-opacity=".5" dominant-baseline="middle" font-family="sans-serif" font-size="29.217" text-anchor="middle">0,1</text><text x="378.372" y="-142.4" fill="#B5B5B5" fill-opacity=".5" dominant-baseline="middle" font-family="sans-serif" font-size="29.217" text-anchor="middle">0,2</text><text x="524.457" y="734.112" fill="#B5B5B5" fill-opacity=".5" dominant-baseline="middle" font-family="sans-serif" font-size="29.217" text-anchor="middle">1,-4</text><text x="524.457" y="588.027" fill="#B5B5B5" fill-opacity=".5" dominant-baseline="middle" font-family="sans-serif" font-size="29.217" text-anchor="middle">1,-3</text><text x="524.457" y="441.942" fill="#B5B5B5" fill-opacity=".5" dominant-baseline="middle" font-family="sans-serif" font-size="29.217" text-anchor="middle">1,-2</text><text x="524.457" y="295.856" fill="#B5B5B5" fill-opacity=".5" dominant-baseline="middle" font-family="sans-serif" font-size="29.217" text-anchor="middle">1,-1</text><text x="524.457" y="149.771" fill="#B5B5B5" fill-opacity=".5" dominant-baseline="middle" font-family="sans-serif" font-size="29.217" text-anchor="middle">1,0</text><text x="524.457" y="3.686" fill="#B5B5B5" fill-opacity=".5" dominant-baseline="middle" font-family="sans-serif" font-size="29.217" text-anchor="middle">1,1</text><text x="524.457" y="-142.4" fill="#B5B5B5" fill-opacity=".5" dominant-baseline="middle" font-family="sans-serif" font-size="29.217" text-anchor="middle">1,2</text><text x="670.543" y="734.112" fill="#B5B5B5" fill-opacity=".5" dominant-baseline="middle" font-family="sans-serif" font-size="29.217" text-anchor="middle">2,-4</text><text x="670.543" y="588.027" fill="#B5B5B5" fill-opacity=".5" dominant-baseline="middle" font-family="sans-serif" font-size="29.217" text-anchor="middle">2,-3</text><text x="670.543" y="441.942" fill="#B5B5B5" fill-opacity=".5" dominant-baseline="middle" font-family="sans-serif" font-size="29.217" text-anchor="middle">2,-2</text><text x="670.543" y="295.856" fill="#B5B5B5" fill-opacity=".5" dominant-baseline="middle" font-family="sans-serif" font-size="29.217" text-anchor="middle">2,-1</text><text x="670.543" y="149.771" fill="#B5B5B5" fill-opacity=".5" dominant-baseline="middle" font-family="sans-serif" font-size="29.217" text-anchor="middle">2,0</text><text x="670.543" y="3.686" fill="#B5B5B5" fill-opacity=".5" dominant-baseline="middle" font-family="sans-serif" font-size="29.217" text-anchor="middle">2,1</text><text x="670.543" y="-142.4" fill="#B5B5B5" fill-opacity=".5" dominant-baseline="middle" font-family="sans-serif" font-size="29.217" text-anchor="middle">2,2</text><text x="816.628" y="734.112" fill="#B5B5B5" fill-opacity=".5" dominant-baseline="middle" font-family="sans-serif" font-size="29.217" text-anchor="middle">3,-4</text><text x="816.628" y="588.027" fill="#B5B5B5" fill-opacity=".5" dominant-baseline="middle" font-family="sans-serif" font-size="29.217" text-anchor="middle">3,-3</text><text x="816.628" y="441.942" fill="#B5B5B5" fill-opacity=".5" dominant-baseline="middle" font-family="sans-serif" font-size="29.217" text-anchor="middle">3,-2</text><text x="816.628" y="295.856" fill="#B5B5B5" fill-opacity=".5" dominant-baseline="middle" font-family="sans-serif" font-size="29.217" text-anchor="middle">3,-1</text><text x="816.628" y="149.771" fill="#B5B5B5" fill-opacity=".5" dominant-baseline="middle" font-family="sans-serif" font-size="29.217" text-anchor="middle">3,0</text><text x="816.628" y="3.686" fill="#B5B5B5" fill-opacity=".5" dominant-baseline="middle" font-family="sans-serif" font-size="29.217" text-anchor="middle">3,1</text><text x="816.628" y="-142.4" fill="#B5B5B5" fill-opacity=".5" dominant-baseline="middle" font-family="sans-serif" font-size="29.217" text-anchor="middle">3,2</text><text x="962.713" y="734.112" fill="#B5B5B5" fill-opacity=".5" dominant-baseline="middle" font-family="sans-serif" font-size="29.217" text-anchor="middle">4,-4</text><text x="962.713" y="588.027" fill="#B5B5B5" fill-opacity=".5" dominant-baseline="middle" font-family="sans-serif" font-size="29.217" text-anchor="middle">4,-3</text><text x="962.713" y="441.942" fill="#B5B5B5" fill-opacity=".5" dominant-baseline="middle" font-family="sans-serif" font-size="29.217" text-anchor="middle">4,-2</text><text x="962.713" y="295.856" fill="#B5B5B5" fill-opacity=".5" dominant-baseline="middle" font-family="sans-serif" font-size="29.217" text-anchor="middle">4,-1</text><text x="962.713" y="149.771" fill="#B5B5B5" fill-opacity=".5" dominant-baseline="middle" font-family="sans-serif" font-size="29.217" text-anchor="middle">4,0</text><text x="962.713" y="3.686" fill="#B5B5B5" fill-opacity=".5" dominant-baseline="middle" font-family="sans-serif" font-size="29.217" text-anchor="middle">4,1</text><text x="962.713" y="-142.4" fill="#B5B5B5" fill-opacity=".5" dominant-baseline="middle" font-family="sans-serif" font-size="29.217" text-anchor="middle">4,2</text><text x="1108.799" y="734.112" fill="#B5B5B5" fill-opacity=".5" dominant-baseline="middle" font-family="sans-serif" font-size="29.217" text-anchor="middle">5,-4</text><text x="1108.799" y="588.027" fill="#B5B5B5" fill-opacity=".5" dominant-baseline="middle" font-family="sans-serif" font-size="29.217" text-anchor="middle">5,-3</text><text x="1108.799" y="441.942" fill="#B5B5B5" fill-opacity=".5" dominant-baseline="middle" font-family="sans-serif" font-size="29.217" text-anchor="middle">5,-2</text><text x="1108.799" y="295.856" fill="#B5B5B5" fill-opacity=".5" dominant-baseline="middle" font-family="sans-serif" font-size="29.217" text-anchor="middle">5,-1</text><text x="1108.799" y="149.771" fill="#B5B5B5" fill-opacity=".5" dominant-baseline="middle" font-family="sans-serif" font-size="29.217" text-anchor="middle">5,0</text><text x="1108.799" y="3.686" fill="#B5B5B5" fill-opacity=".5" dominant-baseline="middle" font-family="sans-serif" font-size="29.217" text-anchor="middle">5,1</text><text x="1108.799" y="-142.4" fill="#B5B5B5" fill-opacity=".5" dominant-baseline="middle" font-family="sans-serif" font-size="29.217" text-anchor="middle">5,2</text></g><g data-circuit-json-type="schematic_component" data-schematic-component-id="schematic_component_0"><rect width="154.85" height="37.982" x="303.447" y="140.893" fill="transparent" class="component-overlay"/><path fill="none" stroke="#840000" stroke-linecap="round" stroke-width="2.922" d="M 303.446787107054 154.040454135259 L 337.04641221314 154.040454135259"/><path fill="none" stroke="#840000" stroke-linecap="round" stroke-width="2.922" d="M 423.23675487657795 154.040454135259 L 458.297233248146 154.040454135259"/><path fill="none" stroke="#840000" stroke-linecap="round" stroke-width="2.922" d="M 395.48054283242 140.89277474592103 L 380.8720101776 168.64898679007902 L 364.80262425729796 140.89277474592103"/><path fill="none" stroke="#840000" stroke-linecap="round" stroke-width="2.922" d="M 380.8720101776 178.874959648453 L 391.097983035974 175.95325311748903"/><path fill="none" stroke="#840000" stroke-linecap="round" stroke-width="2.922" d="M 391.097983035974 175.95325311748903 L 401.323955894348 178.874959648453"/><path fill="none" stroke="#840000" stroke-linecap="round" stroke-width="2.922" d="M 358.95921119536996 178.874959648453 L 370.64603731922597 175.95325311748903"/><path fill="none" stroke="#840000" stroke-linecap="round" stroke-width="2.922" d="M 370.64603731922597 175.95325311748903 L 380.8720101776 178.874959648453"/><text x="380.872" y="100.094" fill="#0F0F0F" dominant-baseline="auto" font-family="sans-serif" font-size="26.295" text-anchor="middle">VS1</text><circle cx="380.872" cy="154.04" r="42.365" fill="none" stroke="#840000" stroke-width="2.922"/></g><g data-circuit-json-type="schematic_component" data-schematic-component-id="schematic_component_1"><rect width="154.85" height="39.443" x="303.447" y="427.95" fill="transparent" class="component-overlay"/><path fill="none" stroke="#840000" stroke-linecap="round" stroke-width="2.922" d="M 303.446787107054 446.94153386439996 L 341.428972009586 446.94153386439996"/><path fill="none" stroke="#840000" stroke-linecap="round" stroke-width="2.922" d="M 418.85419508013194 446.94153386439996 L 458.297233248146 446.94153386439996"/><path fill="none" stroke="#840000" stroke-linecap="round" stroke-width="2.922" d="M 380.8720101776 427.95044141313394 L 418.85419508013194 427.95044141313394 L 418.85419508013194 467.393479581148 L 341.428972009586 467.393479581148 L 341.428972009586 427.95044141313394 L 380.8720101776 427.95044141313394"/><text x="377.95" y="420.753" fill="#0F0F0F" dominant-baseline="auto" font-family="sans-serif" font-size="26.295" text-anchor="middle">R1</text><text x="377.95" y="477.513" fill="#0F0F0F" dominant-baseline="hanging" font-family="sans-serif" font-size="26.295" text-anchor="middle">10kΩ</text></g><g data-circuit-json-type="schematic_component" data-schematic-component-id="schematic_component_2"><rect width="128.571" height="45.958" x="754.802" y="132.57" fill="transparent" class="component-overlay"/><path fill="none" stroke="#840000" stroke-linecap="round" stroke-width="2.922" d="M 794.5197412627637 154.89100673202054 L 754.8023110258941 154.89100673202054"/><path fill="none" stroke="#840000" stroke-linecap="round" stroke-width="2.922" d="M 883.3731902121101 154.6405142225884 L 843.6406547524755 154.6405142225884"/><path fill="none" stroke="#840000" stroke-linecap="round" stroke-width="2.922" d="M 818.531421174175 178.39413440465216 L 818.531421174175 178.39413440465216 L 816.5469332451162 177.87493639031658 L 814.6818523974323 177.31253635459512 L 812.9325601495262 176.70909839252985 L 811.2954380198009 176.06678659916295 L 809.7668675266592 175.38776506953653 L 808.3432301885038 174.67419789869268 L 807.0209075237376 173.92824918167355 L 805.7962810507635 173.15208301352126 L 804.6657322879844 172.34786348927793 L 803.6256427538029 171.5177547039857 L 802.6723939666223 170.66392075268666 L 801.802367444845 169.78852573042295 L 801.011944706874 168.8937337322367 L 800.2975072711124 167.98170885317003 L 799.6554366559627 167.05461518826505 L 799.0821143798279 166.11461683256388 L 798.5739219611108 165.16387788110865 L 798.1272409182144 164.2045624289415 L 797.7384527695414 163.23883457110455 L 797.4039390334946 162.2688584026399 L 797.120081228477 161.29679801858967 L 796.8832608728915 160.324817513996 L 796.6898594851407 159.35508098390102 L 796.5362585836276 158.38975252334683 L 796.4188396867551 157.43099622737557 L 796.333984312926 156.48097619102938 L 796.278073980543 155.54185650935034 L 796.2474902080093 154.6158012773806 L 796.2386145137275 153.70497459016227 L 796.2478284161004 152.81154054273748 L 796.2478284161004 152.81154054273748 L 796.2478284161004 152.81154054273748 L 796.3052875813662 151.8290634411359 L 796.437758688803 150.84900624296858 L 796.6422677820282 149.8733837083642 L 796.9158409046588 148.90421059745137 L 797.2555041003124 147.94350167035873 L 797.6582834126059 146.99327168721496 L 798.1212048851568 146.05553540814864 L 798.6412945615821 145.1323075932885 L 799.2155784854992 144.2256030027631 L 799.8410827005252 143.33743639670115 L 800.5148332502777 142.46982253523126 L 801.2338561783735 141.62477617848208 L 801.9951775284301 140.80431208658226 L 802.7958233440646 140.01044501966044 L 803.6328196688944 139.24518973784524 L 804.5031925465365 138.51056100126533 L 805.4039680206084 137.80857357004936 L 806.3321721347272 137.14124220432598 L 807.2848309325102 136.5105816642238 L 808.2589704575746 135.91860670987148 L 809.2516167535376 135.36733210139766 L 810.2597958640165 134.85877259893098 L 811.2805338326286 134.3949429626001 L 812.310856702991 133.9778579525337 L 813.347790518721 133.60953232886033 L 814.3883613234359 133.29198085170873 L 815.4295951607529 133.02721828120747 L 816.4685180742892 132.81725937748521 L 817.5021561076621 132.66411890067064 L 818.5275353044888 132.56981161089234 L 818.5275353044888 132.56981161089234"/><path fill="none" stroke="#840000" stroke-linecap="round" stroke-width="2.922" d="M 819.7355148697159 178.52764178458463 L 819.7355148697159 178.52764178458463 L 821.7200027987747 178.00844377024907 L 823.5850836464585 177.4460437345276 L 825.3343758943646 176.84260577246232 L 826.9714980240899 176.20029397909542 L 828.5000685172316 175.521272449469 L 829.9237058553871 174.80770527862515 L 831.2460285201532 174.06175656160602 L 832.4706549931274 173.28559039345373 L 833.6012037559065 172.4813708692104 L 834.6412932900879 171.65126208391817 L 835.5945420772686 170.79742813261913 L 836.4645685990458 169.92203311035541 L 837.2549913370168 169.02724111216918 L 837.9694287727784 168.1152162331025 L 838.6114993879281 167.1881225681975 L 839.184821664063 166.24812421249635 L 839.69301408278 165.29738526104111 L 840.1396951256764 164.33806980887397 L 840.5284832743495 163.37234195103701 L 840.8629970103963 162.40236578257236 L 841.1468548154138 161.43030539852214 L 841.3836751709994 160.45832489392848 L 841.5770765587502 159.4885883638335 L 841.7306774602632 158.5232599032793 L 841.8480963571358 157.56450360730804 L 841.9329517309649 156.61448357096185 L 841.9888620633477 155.6753638892828 L 842.0194458358816 154.74930865731307 L 842.0283215301633 153.83848197009473 L 842.0191076277904 152.94504792266994 L 842.0191076277904 152.94504792266994 L 842.0191076277904 152.94504792266994 L 841.9616484625246 151.96257082106837 L 841.8291773550878 150.98251362290105 L 841.6246682618627 150.00689108829667 L 841.351095139232 149.03771797738383 L 841.0114319435785 148.0770090502912 L 840.6086526312849 147.12677906714742 L 840.1457311587341 146.1890427880811 L 839.6256414823088 145.26581497322096 L 839.0513575583916 144.35911038269558 L 838.4258533433655 143.47094377663362 L 837.7521027936132 142.60332991516373 L 837.0330798655173 141.75828355841455 L 836.2717585154608 140.93781946651472 L 835.4711126998262 140.1439523995929 L 834.6341163749964 139.3786971177777 L 833.7637434973543 138.6440683811978 L 832.8629680232824 137.94208094998183 L 831.9347639091636 137.27474958425844 L 830.9821051113806 136.64408904415626 L 830.0079655863162 136.05211408980395 L 829.0153192903532 135.50083948133013 L 828.0071401798742 134.99227997886345 L 826.9864022112622 134.5284503425326 L 825.9560793408998 134.11136533246616 L 824.9191455251698 133.74303970879282 L 823.8785747204549 133.4254882316412 L 822.8373408831379 133.16072566113994 L 821.7984179696016 132.95076675741768 L 820.7647799362287 132.79762628060308 L 819.739400739402 132.7033189908248 L 819.739400739402 132.7033189908248"/><path fill="none" stroke="#840000" stroke-linecap="round" stroke-width="2.922" d="M 807.3840005100656 156.0967950173495 L 807.3840005100656 144.62204096204354"/><path fill="none" stroke="#840000" stroke-linecap="round" stroke-width="2.922" d="M 821.3112058103974 166.78647191925273 L 821.3112058103974 144.56169311364647"/><path fill="none" stroke="#840000" stroke-linecap="round" stroke-width="2.922" d="M 829.1657609543818 167.02802400670026 L 829.1657609543818 155.97601166935942"/><path fill="none" stroke="#840000" stroke-linecap="round" stroke-width="2.922" d="M 807.179145056647 144.6220847876414 L 821.43200376692 144.6220847876414"/><path fill="none" stroke="#840000" stroke-linecap="round" stroke-width="2.922" d="M 820.851738241338 166.89358168067795 L 829.1256459237115 166.89358168067795"/><path fill="none" stroke="#840000" stroke-linecap="round" stroke-width="2.922" d="M 794.0561686960282 142.46811508181878 L 779.8562513080961 142.46811508181878 L 779.8562513080961 141.9654354731665 L 794.0561686960282 141.9654354731665"/><path fill="none" stroke="#840000" stroke-linecap="round" stroke-width="2.922" d="M 787.2132836554556 135.11359540207624 L 787.2132836554556 149.31351279000833 L 786.7106040468033 149.31351279000833 L 786.7106040468033 135.11359540207624"/><text x="818.771" y="123.788" fill="#0F0F0F" dominant-baseline="auto" font-family="sans-serif" font-size="26.295" text-anchor="middle">VS2</text></g><g data-circuit-json-type="schematic_component" data-schematic-component-id="schematic_component_3"><rect width="154.85" height="39.443" x="741.703" y="427.95" fill="transparent" class="component-overlay"/><path fill="none" stroke="#840000" stroke-linecap="round" stroke-width="2.922" d="M 741.702766751654 446.94153386439996 L 779.684951654186 446.94153386439996"/><path fill="none" stroke="#840000" stroke-linecap="round" stroke-width="2.922" d="M 857.110174724732 446.94153386439996 L 896.5532128927459 446.94153386439996"/><path fill="none" stroke="#840000" stroke-linecap="round" stroke-width="2.922" d="M 819.1279898222 427.950441413134 L 857.110174724732 427.950441413134 L 857.110174724732 467.393479581148 L 779.684951654186 467.393479581148 L 779.684951654186 427.950441413134 L 819.1279898222 427.950441413134"/><text x="816.206" y="420.753" fill="#0F0F0F" dominant-baseline="auto" font-family="sans-serif" font-size="26.295" text-anchor="middle">R2</text><text x="816.206" y="477.513" fill="#0F0F0F" dominant-baseline="hanging" font-family="sans-serif" font-size="26.295" text-anchor="middle">10kΩ</text></g><g class="trace" data-circuit-json-type="schematic_trace" data-schematic-trace-id="schematic_trace_0"><path fill="none" stroke="#009600" stroke-linecap="round" stroke-linejoin="round" stroke-width="23.374" d="M 301.985933841572 155.501307400741 L 271.30801526644996 155.501307400741 L 271.30801526644996 446.94153386439996 L 300.52508057609 446.94153386439996" class="trace-invisible-hover-outline" opacity="0"/><path fill="none" stroke="#009600" stroke-linecap="round" stroke-linejoin="round" stroke-width="2.922" d="M 301.985933841572 155.501307400741 L 271.30801526644996 155.501307400741 L 271.30801526644996 446.94153386439996 L 300.52508057609 446.94153386439996"/></g><g class="trace" data-circuit-json-type="schematic_trace" data-schematic-trace-id="schematic_trace_1"><path fill="none" stroke="#009600" stroke-linecap="round" stroke-linejoin="round" stroke-width="23.374" d="M 459.758086513628 154.040454135259 L 490.43600508875 154.040454135259 L 490.43600508875 446.94153386439996 L 461.21893977911 446.94153386439996" class="trace-invisible-hover-outline" opacity="0"/><path fill="none" stroke="#009600" stroke-linecap="round" stroke-linejoin="round" stroke-width="2.922" d="M 459.758086513628 154.040454135259 L 490.43600508875 154.040454135259 L 490.43600508875 446.94153386439996 L 461.21893977911 446.94153386439996"/><circle cx="488.975" cy="154.04" r="4.383" fill="#009600" class="trace-junction"/></g><g class="trace" data-circuit-json-type="schematic_trace" data-schematic-trace-id="schematic_trace_2"><path fill="none" stroke="#009600" stroke-linecap="round" stroke-linejoin="round" stroke-width="23.374" d="M 884.2529452656487 154.77996727531132 L 913.4700105752888 154.77996727531132 L 913.4700105752888 80.34692960152256 L 488.975151823268 80.34692960152256 L 488.975151823268 154.040454135259 L 459.758086513628 154.040454135259" class="trace-invisible-hover-outline" opacity="0"/><path fill="none" stroke="#009600" stroke-linecap="round" stroke-linejoin="round" stroke-width="2.922" d="M 884.2529452656487 154.77996727531132 L 913.4700105752888 154.77996727531132 L 913.4700105752888 80.34692960152256 L 488.975151823268 80.34692960152256 L 488.975151823268 154.040454135259 L 459.758086513628 154.040454135259"/><circle cx="488.975" cy="154.04" r="4.383" fill="#009600" class="trace-junction"/><circle cx="913.47" cy="154.78" r="4.383" fill="#009600" class="trace-junction"/></g><g class="trace" data-circuit-json-type="schematic_trace" data-schematic-trace-id="schematic_trace_3"><path fill="none" stroke="#009600" stroke-linecap="round" stroke-linejoin="round" stroke-width="23.374" d="M 899.4749194237099 446.94153386439996 L 928.69198473335 446.94153386439996 L 928.69198473335 154.77996727531132 L 884.2529452656487 154.77996727531132" class="trace-invisible-hover-outline" opacity="0"/><path fill="none" stroke="#009600" stroke-linecap="round" stroke-linejoin="round" stroke-width="2.922" d="M 899.4749194237099 446.94153386439996 L 928.69198473335 446.94153386439996 L 928.69198473335 154.77996727531132 L 884.2529452656487 154.77996727531132"/><circle cx="913.47" cy="154.78" r="4.383" fill="#009600" class="trace-junction"/></g><g class="trace" data-circuit-json-type="schematic_trace" data-schematic-trace-id="schematic_trace_4"><path fill="none" stroke="#009600" stroke-linecap="round" stroke-linejoin="round" stroke-width="23.374" d="M 754.0030343787512 154.7617942606887 L 709.56399491105 154.7617942606887 L 709.56399491105 446.94153386439996 L 738.78106022069 446.94153386439996" class="trace-invisible-hover-outline" opacity="0"/><path fill="none" stroke="#009600" stroke-linecap="round" stroke-linejoin="round" stroke-width="2.922" d="M 754.0030343787512 154.7617942606887 L 709.56399491105 154.7617942606887 L 709.56399491105 446.94153386439996 L 738.78106022069 446.94153386439996"/></g><g class="schematic-port-hover" data-schematic-port-id="source_port_0"><circle cx="301.986" cy="155.501" r="5.843" fill="red" opacity="0"/></g><g class="schematic-port-hover" data-schematic-port-id="source_port_1"><circle cx="459.758" cy="154.04" r="5.843" fill="red" opacity="0"/></g><g class="schematic-port-hover" data-schematic-port-id="source_port_2"><circle cx="300.525" cy="446.942" r="5.843" fill="red" opacity="0"/></g><g class="schematic-port-hover" data-schematic-port-id="source_port_3"><circle cx="461.219" cy="446.942" r="5.843" fill="red" opacity="0"/></g><g class="schematic-port-hover" data-schematic-port-id="source_port_4"><circle cx="754.003" cy="154.762" r="5.843" fill="red" opacity="0"/></g><g class="schematic-port-hover" data-schematic-port-id="source_port_5"><circle cx="884.253" cy="154.78" r="5.843" fill="red" opacity="0"/></g><g class="schematic-port-hover" data-schematic-port-id="source_port_6"><circle cx="738.781" cy="446.942" r="5.843" fill="red" opacity="0"/></g><g class="schematic-port-hover" data-schematic-port-id="source_port_7"><circle cx="899.475" cy="446.942" r="5.843" fill="red" opacity="0"/></g><rect width="64.278" height="70.121" x="456.836" y="446.942" fill="transparent" class="component-overlay"/><path fill="none" stroke="#840000" stroke-linecap="round" stroke-width="2.922" d="M 488.975151823268 446.9415338643999 L 488.975151823268 495.1496916253059"/><path fill="none" stroke="#840000" stroke-linecap="round" stroke-width="2.922" d="M 456.83637998266397 495.1496916253059 L 521.113923663872 495.1496916253059"/><path fill="none" stroke="#840000" stroke-linecap="round" stroke-width="2.922" d="M 464.140646310074 506.8365177491619 L 513.809657336462 506.8365177491619"/><path fill="none" stroke="#840000" stroke-linecap="round" stroke-width="2.922" d="M 480.210032230376 517.0624906075359 L 497.74027141616 517.0624906075359"/><text x="486.053" y="534.593" fill="#0F0F0F" dominant-baseline="hanging" font-family="sans-serif" font-size="26.295" text-anchor="middle">GND</text></svg>